HIERARCHY
ROOT Hips
{
	OFFSET 0.000000 0.000000 0.000000
	CHANNELS 6 Xposition Yposition Zposition Zrotation Yrotation Xrotation 
	JOINT LHipJoint
	{
		OFFSET 0.000000 0.000000 0.000000
		CHANNELS 3 Zrotation Yrotation Xrotation
		JOINT LeftUpLeg
		{
			OFFSET 8.178360 -10.767780 5.035740
			CHANNELS 3 Zrotation Yrotation Xrotation
			JOINT LeftLeg
			{
				OFFSET 14.688660 -40.356780 0.000000
				CHANNELS 3 Zrotation Yrotation Xrotation
				JOINT LeftFoot
				{
					OFFSET 15.373200 -42.237540 0.000000
					CHANNELS 3 Zrotation Yrotation Xrotation
					JOINT LeftToeBase
					{
						OFFSET 0.945840 -2.598660 13.935300
						CHANNELS 3 Zrotation Yrotation Xrotation
						End Site
						{
							OFFSET 0.000000 0.000000 0.000000
						}
					}
				}
			}
		}
	}
	JOINT RHipJoint
	{
		OFFSET 0.000000 0.000000 0.000000
		CHANNELS 3 Zrotation Yrotation Xrotation
		JOINT RightUpLeg
		{
			OFFSET -7.833120 -10.767780 5.035740
			CHANNELS 3 Zrotation Yrotation Xrotation
			JOINT RightLeg
			{
				OFFSET -15.255180 -41.913300 0.000000
				CHANNELS 3 Zrotation Yrotation Xrotation
				JOINT RightFoot
				{
					OFFSET -15.409560 -42.337380 0.000000
					CHANNELS 3 Zrotation Yrotation Xrotation
					JOINT RightToeBase
					{
						OFFSET -0.988380 -2.715540 14.178900
						CHANNELS 3 Zrotation Yrotation Xrotation
						End Site
						{
							OFFSET 0.000000 0.000000 0.000000
						}
					}
				}
			}
		}
	}
	JOINT LowerBack
	{
		OFFSET 0.000000 0.000000 0.000000
		CHANNELS 3 Zrotation Yrotation Xrotation
		JOINT Spine
		{
			OFFSET 0.169620 12.213540 -1.160280
			CHANNELS 3 Zrotation Yrotation Xrotation
			JOINT Spine1
			{
				OFFSET 0.340320 12.293100 -0.256500
				CHANNELS 3 Zrotation Yrotation Xrotation
				JOINT Neck
				{
					OFFSET 0.000000 0.000000 0.000000
					CHANNELS 3 Zrotation Yrotation Xrotation
					JOINT Neck1
					{
						OFFSET -0.325020 10.477440 1.032120
						CHANNELS 3 Zrotation Yrotation Xrotation
						JOINT Head
						{
							OFFSET 0.624420 10.568160 -0.743820
							CHANNELS 3 Zrotation Yrotation Xrotation
							End Site
							{
								OFFSET 0.000000 0.000000 0.000000
							}
						}
					}
				}
				JOINT LeftShoulder
				{
					OFFSET 0.000000 0.000000 0.000000
					CHANNELS 3 Zrotation Yrotation Xrotation
					JOINT LeftArm
					{
						OFFSET 20.174460 7.205340 -1.867260
						CHANNELS 3 Zrotation Yrotation Xrotation
						JOINT LeftForeArm
						{
							OFFSET 29.898000 -0.000000 -0.000000
							CHANNELS 3 Zrotation Yrotation Xrotation
							JOINT LeftHand
							{
								OFFSET 20.901360 -0.000000 -0.000000
								CHANNELS 3 Zrotation Yrotation Xrotation
								JOINT LeftFingerBase
								{
									OFFSET 0.000000 0.000000 0.000000
									CHANNELS 3 Zrotation Yrotation Xrotation
									JOINT LeftHandIndex1
									{
										OFFSET 4.291560 -0.000000 -0.000000
										CHANNELS 3 Zrotation Yrotation Xrotation
										End Site
										{
											OFFSET 0.000000 0.000000 0.000000
										}
									}
								}
								JOINT LThumb
								{
									OFFSET 0.000000 0.000000 0.000000
									CHANNELS 3 Zrotation Yrotation Xrotation
									End Site
									{
										OFFSET 0.000000 0.000000 0.000000
									}
								}
							}
						}
					}
				}
				JOINT RightShoulder
				{
					OFFSET 0.000000 0.000000 0.000000
					CHANNELS 3 Zrotation Yrotation Xrotation
					JOINT RightArm
					{
						OFFSET -18.819600 8.244300 -2.427900
						CHANNELS 3 Zrotation Yrotation Xrotation
						JOINT RightForeArm
						{
							OFFSET -31.451400 -0.000000 -0.000000
							CHANNELS 3 Zrotation Yrotation Xrotation
							JOINT RightHand
							{
								OFFSET -20.665020 -0.000000 -0.000000
								CHANNELS 3 Zrotation Yrotation Xrotation
								JOINT RightFingerBase
								{
									OFFSET 0.000000 0.000000 0.000000
									CHANNELS 3 Zrotation Yrotation Xrotation
									JOINT RightHandIndex1
									{
										OFFSET -3.735180 -0.000000 -0.000000
										CHANNELS 3 Zrotation Yrotation Xrotation
										End Site
										{
											OFFSET 0.000000 0.000000 0.000000
										}
									}
								}
								JOINT RThumb
								{
									OFFSET 0.000000 0.000000 0.000000
									CHANNELS 3 Zrotation Yrotation Xrotation
									End Site
									{
										OFFSET 0.000000 0.000000 0.000000
									}
								}
							}
						}
					}
				}
			}
		}
	}
}
MOTION
Frames:	12
Frame Time:	0.0333333
-26.535780 107.723922 51.969516 -9.385675 60.554377 -9.627635 -2.127392 0.304239 0.746122 -11.386454 -3.822438 -25.642656 2.911879 12.365825 36.940874 0.552697 -4.137911 4.457793 0.147700 -2.477000 -6.826000 1.371186 -1.087299 1.743972 24.598742 -1.092949 -0.536125 -0.795707 -6.568027 20.537108 -0.520190 1.070285 -3.917565 -0.002300 0.310000 -0.851900 3.412270 2.131063 9.545106 1.694449 3.355064 1.383485 -1.764131 1.700099 -3.940104 -11.948714 -6.405727 -15.884201 6.550508 -6.418078 18.414968 4.302000 -3.346800 13.615800 -6.598567 -0.596815 -1.689324 -83.723047 5.046439 21.248041 14.394966 -20.505582 -3.100343 -1.414483 -2.472798 7.685485 18.267177 23.869664 8.901700 -7.125000 0.000000 0.000000 -11.835800 57.418000 -3.633600 5.273398 1.621987 -0.917821 78.324939 3.004996 13.181217 -16.168997 23.987624 -3.671988 0.432795 -0.131657 4.869774 -16.218907 7.456940 -2.248400 7.125000 0.000000 0.000000 7.393800 -22.137100 4.096000 
-23.975784 107.570358 53.634024 -10.630902 61.428018 -10.113957 -2.506932 0.162350 0.675625 -10.944869 -3.589019 -25.940341 0.762242 9.547313 27.308257 0.199484 -0.376033 5.795212 0.025800 -1.037300 -2.851400 1.431259 -1.064021 1.775791 25.201484 -2.055890 1.447606 -0.549967 -5.879457 18.589223 -0.413738 0.511658 -4.202503 -0.003700 0.394700 -1.084400 4.021269 2.393994 9.053196 1.779916 3.736349 1.351351 -1.963664 1.907306 -3.729548 -11.916482 -6.261959 -15.918810 6.377865 -6.190148 18.379715 4.255200 -3.267100 13.560200 -6.584201 -0.592127 -1.700571 -84.189457 5.080986 20.964138 14.408228 -20.497841 -3.100267 -1.412823 -2.449669 7.602418 18.328605 23.469682 8.803700 -7.125000 0.000000 0.000000 -11.546400 57.008600 -3.428600 5.258554 1.623453 -0.908026 77.225778 4.124107 14.127497 -16.687617 24.709452 -3.914601 0.423376 -0.118581 4.320656 -15.981405 7.475123 -2.216000 7.125000 0.000000 0.000000 7.574500 -22.137400 4.197700 
-21.241752 107.312010 55.238310 -11.719439 62.136789 -10.247071 -2.912244 0.063152 0.613774 -10.544149 -3.795458 -25.850644 -0.816330 6.488758 18.009914 -0.289056 3.123406 5.591645 0.093200 -1.969400 -5.421000 1.477922 -1.046720 1.799541 25.730637 -2.276075 3.498973 -0.330630 -5.238355 16.775368 -0.258755 -0.287913 -4.517772 -0.002800 0.343000 -0.942400 4.617836 2.648276 8.250932 1.804619 4.077059 1.257481 -2.251977 2.094306 -3.433399 -11.911884 -6.177343 -16.211210 6.230900 -6.024616 18.692095 4.228300 -3.214100 13.738800 -6.598500 -0.580609 -1.711566 -84.536174 5.155271 20.654663 14.189345 -20.155390 -2.996550 -1.358644 -2.394257 8.091746 17.477240 22.729723 8.129700 -7.125000 0.000000 0.000000 -12.116200 56.030800 -3.313100 5.247881 1.615877 -0.905377 76.372385 5.333615 14.700274 -16.958998 25.093310 -4.047142 0.410959 -0.117396 4.135201 -15.678455 7.613409 -2.211000 7.125000 0.000000 0.000000 7.800100 -22.007100 4.348400 
-18.305376 107.123520 56.684220 -11.783210 62.961067 -9.429601 -3.383589 0.164736 0.489221 -9.120178 -8.490630 -23.809862 -1.750347 3.719221 10.213874 -1.563231 9.290074 1.602899 0.141400 -2.423100 -6.676500 1.482481 -1.092289 1.848965 25.452086 -3.519973 4.530432 -0.245606 -4.911293 15.871616 -0.285962 -0.159022 -4.542052 -0.076200 1.781300 -4.901700 4.782123 2.803081 7.388986 1.776712 4.236813 1.086602 -2.421886 2.178270 -3.271462 -12.037918 -6.069835 -16.439831 6.171570 -5.791328 18.887395 4.267500 -3.136000 13.858700 -6.618899 -0.550015 -1.737975 -85.257225 5.576767 19.396024 14.011841 -19.870526 -2.900761 -1.366624 -2.376470 10.001916 16.749494 22.937271 7.822600 -7.125000 0.000000 0.000000 -13.062700 56.095000 -3.598500 5.227527 1.588688 -0.913398 75.902109 6.195200 15.132045 -17.262462 25.484388 -4.184083 0.436003 -0.103506 3.454582 -16.325562 7.409560 -2.244000 7.125000 0.000000 0.000000 7.318600 -22.200000 4.043000 
-15.311790 106.850118 58.109652 -12.528276 63.508796 -9.455228 -3.434492 0.115215 0.482574 -9.845267 -7.246286 -24.437587 -1.968289 2.842751 7.794082 -1.726283 10.049798 0.363007 0.191100 -2.815200 -7.764600 1.457260 -1.113709 1.887070 25.567097 -4.113033 6.301124 -0.141659 -4.497227 14.749255 -0.256602 -0.206846 -4.152636 -0.135500 2.372900 -6.537300 5.190281 2.890341 6.993652 1.766092 4.359137 0.852084 -2.709161 2.242090 -3.454241 -11.654353 -5.852549 -16.717005 5.888509 -5.551052 19.126251 4.113600 -3.026500 13.985600 -6.628149 -0.549350 -1.763262 -85.545545 5.974263 19.198558 13.688068 -19.388690 -2.747889 -1.431806 -2.404526 9.969476 17.222543 23.311453 8.189900 -7.125000 0.000000 0.000000 -12.717100 56.608300 -3.660000 5.226171 1.560838 -0.939140 75.682212 6.813859 15.770056 -17.430076 25.690340 -4.258888 0.455690 -0.109362 2.356980 -16.825819 7.804625 -2.443000 7.125000 0.000000 0.000000 6.932700 -21.754300 3.897500 
-12.330852 106.489998 59.546520 -13.670053 64.905556 -10.585528 -3.330159 0.067522 0.498294 -11.307668 -5.398082 -25.449024 -1.747454 3.849655 10.473453 -1.490696 9.175599 2.443248 0.056100 -1.527800 -4.202300 1.400288 -1.144463 1.923085 25.860203 -4.999609 8.832617 -0.039285 -4.048504 13.540488 -0.063867 -1.031602 -3.663989 -0.290000 3.463100 -9.570700 5.337439 2.740244 7.496944 1.870378 4.213915 0.756053 -2.649223 2.162109 -3.928470 -11.729348 -5.948200 -17.025986 6.009543 -5.622674 19.139703 4.161700 -3.043700 14.107200 -6.677379 -0.523675 -1.774839 -86.044419 6.107556 18.196900 13.155070 -18.554061 -2.497050 -1.537790 -2.401066 11.281732 17.429855 23.811765 8.465900 -7.125000 0.000000 0.000000 -12.734400 57.190800 -3.845200 5.241189 1.594011 -0.947822 75.746827 7.081470 15.474440 -17.681887 25.999099 -4.375178 0.444352 -0.111987 4.040885 -16.827576 7.479250 -2.339000 7.125000 0.000000 0.000000 6.944400 -22.102000 3.848900 
-8.844054 106.426158 60.989418 -12.788366 65.229369 -10.027806 -3.334402 0.141130 0.651642 -12.562456 -4.694132 -24.758318 -1.522591 4.555648 12.588919 -0.712455 5.543503 5.066995 0.000900 0.192100 0.527700 1.314614 -1.193979 1.884648 25.429252 -4.816949 11.492032 -0.062666 -4.100407 13.662589 0.228077 -2.312427 -2.663336 -0.525200 4.644200 -12.896500 4.928069 3.130631 7.466939 1.686999 4.688013 0.808255 -2.867170 2.406474 -3.870864 -11.221570 -6.084891 -16.884421 6.027951 -6.004692 18.760093 3.998600 -3.136600 13.911400 -6.742763 -0.511002 -1.739522 -85.819995 5.945011 17.630758 12.426106 -17.447249 -2.187672 -1.608765 -2.352867 12.432797 17.289542 23.788351 8.398500 -7.125000 0.000000 0.000000 -12.834600 57.127000 -3.856300 5.251078 1.585290 -0.958663 76.841904 6.647823 13.903805 -18.149100 26.614709 -4.603096 0.432281 -0.119888 3.663567 -16.582966 8.056236 -2.480200 7.125000 0.000000 0.000000 7.118700 -21.504300 4.044300 
-5.113968 106.820004 62.368476 -7.482719 65.729259 -4.772779 -3.566576 0.190086 0.777145 -14.861762 -4.992379 -23.673567 -1.542082 4.291798 12.131175 0.107050 2.258923 11.428840 0.034300 1.196000 3.288300 1.187547 -1.238579 1.829911 22.969761 -4.221895 11.313586 -0.484421 -5.401570 17.319987 0.317831 -2.633369 -0.765789 -0.825700 5.797600 -16.198100 2.770970 3.486852 6.877730 1.209928 4.909335 0.646232 -2.681435 2.532956 -3.982274 -11.348620 -6.116076 -16.896444 6.339275 -6.037490 18.946786 4.163300 -3.121900 14.035400 -6.840095 -0.478841 -1.722639 -85.782885 5.864370 16.172884 11.749555 -16.399309 -1.911240 -1.673787 -2.287536 14.231111 16.875524 23.766638 8.185200 -7.125000 0.000000 0.000000 -13.254000 56.999800 -3.944400 5.233108 1.594095 -0.979303 78.276190 5.761808 12.605789 -18.310187 26.819326 -4.680617 0.423672 -0.148614 2.468436 -16.291668 9.330655 -2.822500 7.125000 0.000000 0.000000 7.313600 -20.163700 4.379700 
-1.264038 107.272266 63.644562 -3.587788 67.492175 -1.299100 -3.763657 0.289211 0.992406 -17.381189 -4.853355 -21.935675 -1.463477 4.429633 12.763403 0.372556 0.784956 13.299763 0.324400 3.660700 10.123900 1.017382 -1.257703 1.683114 20.921078 -5.015826 9.310547 -1.450340 -7.617611 23.886081 0.239997 -2.315271 3.339988 -0.654700 5.175600 -14.410100 1.805558 3.213041 6.665156 0.747975 4.465674 0.642082 -3.074373 2.316634 -3.894348 -11.314516 -6.152106 -16.889320 6.501214 -6.125537 18.873979 4.224100 -3.131000 14.017200 -6.933876 -0.463941 -1.695471 -85.608087 5.690119 13.914472 11.357074 -15.800306 -1.748538 -1.812210 -2.253455 16.454289 17.169145 24.540731 8.579700 -7.125000 0.000000 0.000000 -13.352500 57.874000 -4.257400 5.213340 1.585360 -0.990006 80.347308 4.917070 10.635200 -18.185472 26.657808 -4.622240 0.394576 -0.127689 4.582028 -15.686610 8.305423 -2.409600 7.125000 0.000000 0.000000 7.786300 -21.287100 4.469000 
2.508204 107.792574 64.809840 -1.809388 68.648926 -0.443858 -3.849490 0.434441 1.332986 -19.094283 -3.560719 -19.769105 -1.381462 4.476902 13.188183 0.678241 -1.646863 14.513257 0.725900 5.443800 15.178800 0.825904 -1.233370 1.425443 19.491960 -5.093200 6.442205 -3.021835 -10.273587 32.300669 -0.078440 -2.587040 12.326476 -0.174400 2.690400 -7.417900 1.656070 3.085907 7.108329 0.670570 4.317339 0.909448 -3.164746 2.234603 -3.698938 -11.565072 -6.117302 -16.754358 6.434419 -5.987549 18.495704 4.259600 -3.111600 13.789800 -6.981956 -0.491692 -1.648187 -85.635532 5.160210 13.064434 11.249481 -15.582463 -1.702682 -1.660697 -2.179430 16.548329 15.665119 23.213133 7.401700 -7.125000 0.000000 0.000000 -14.276100 56.126200 -3.953000 5.230114 1.568111 -0.993542 81.741982 3.933061 10.019047 -18.110913 26.541098 -4.578387 0.417252 -0.108259 3.663827 -16.087809 8.026233 -2.389800 7.125000 0.000000 0.000000 7.489200 -21.570400 4.247000 
6.248532 108.209904 65.892612 1.920942 69.110863 2.533629 -3.981687 0.587341 1.639289 -21.143489 -3.116479 -16.790209 -1.410172 4.065431 12.336288 0.686306 -2.280862 14.520034 0.813000 5.753800 16.071800 0.606756 -1.228584 1.183140 17.255996 -3.540010 2.085138 -5.105744 -12.948480 41.812157 -1.315195 -0.650885 22.826949 -0.327600 3.678800 -10.174700 0.675471 3.184659 7.107843 0.467268 4.378835 1.107409 -3.035050 2.255196 -3.428388 -11.473456 -5.974761 -16.506424 6.112792 -5.813506 18.437969 4.127900 -3.070600 13.642500 -6.993796 -0.566718 -1.608898 -85.435667 4.655603 14.874911 11.379773 -15.752777 -1.762496 -1.552569 -2.124998 15.588060 15.182285 22.039625 6.829400 -7.125000 0.000000 0.000000 -14.168200 54.777600 -3.454500 5.247447 1.513218 -1.010909 82.677433 2.924082 10.615125 -17.768969 26.101308 -4.419485 0.399785 -0.120841 3.741516 -15.535413 8.404762 -2.413800 7.125000 0.000000 0.000000 7.890600 -21.193800 4.546700 
9.770256 108.392376 67.002486 6.747319 70.125715 6.386388 -4.075831 0.766474 1.940864 -23.204075 -3.387668 -12.985137 -1.450258 3.532654 11.174509 0.565470 -2.669337 12.764548 0.751200 5.535900 15.443600 0.383772 -1.279244 0.955502 15.056347 -2.120459 -2.585592 -7.653633 -15.322534 51.395985 -2.320884 -2.113143 30.632807 -0.000900 -0.188900 0.518900 -0.866198 2.982829 7.395824 0.263440 3.986739 1.261540 -2.509912 2.040055 -3.403692 -11.591221 -5.786436 -16.507441 6.089215 -5.518213 19.132661 4.205400 -2.963200 13.921900 -6.944095 -0.644967 -1.617045 -85.133018 4.485265 18.303130 12.194854 -17.042338 -2.093631 -1.626876 -2.287129 14.312955 16.597995 23.815213 8.040500 -7.125000 0.000000 0.000000 -13.618500 56.973300 -4.046800 5.253733 1.480664 -1.010459 83.352101 2.530716 11.535991 -17.001080 25.091111 -4.067078 0.343473 -0.159476 5.873949 -14.253630 8.880584 -2.333700 7.125000 0.000000 0.000000 8.832200 -20.738900 5.193400 
